<svg width="8" height="13" viewBox="0 0 8 13" fill="none" xmlns="http://www.w3.org/2000/svg">
<path d="M6.22247 6.41779L0.864072 1.0522C0.811711 1.00011 0.770335 0.938037 0.742396 0.869667C0.714456 0.801298 0.700521 0.728018 0.701417 0.654164C0.702312 0.580312 0.718019 0.50739 0.747607 0.439717C0.777196 0.372046 0.820064 0.311 0.873672 0.260195C0.983324 0.156107 1.12924 0.0988779 1.28042 0.10067C1.4316 0.102463 1.57612 0.163135 1.68327 0.269794L7.43767 6.03219C7.48973 6.0839 7.53096 6.14546 7.55894 6.21329C7.58693 6.28111 7.60111 6.35383 7.60067 6.4272C7.60022 6.50057 7.58515 6.57312 7.55634 6.64059C7.52753 6.70807 7.48556 6.76913 7.43287 6.82019L1.37607 12.7362C1.26764 12.8409 1.1228 12.8994 0.972073 12.8994C0.821344 12.8994 0.676502 12.8409 0.568073 12.7362C0.515093 12.6847 0.472975 12.6232 0.444215 12.5552C0.415454 12.4871 0.400635 12.414 0.400635 12.3402C0.400635 12.2663 0.415454 12.1932 0.444215 12.1252C0.472975 12.0572 0.515093 11.9956 0.568073 11.9442L6.22247 6.41779Z" fill="black"/>
</svg>
